<svg xmlns="http://www.w3.org/2000/svg" xmlns:xlink="http://www.w3.org/1999/xlink" width="100" zoomAndPan="magnify" viewBox="0 0 75 52.499999" height="70" preserveAspectRatio="xMidYMid meet" version="1.0"><defs><clipPath id="id1"><path d="M 0.355469 33 L 70 33 L 70 52.003906 L 0.355469 52.003906 Z M 0.355469 33 " clip-rule="nonzero"/></clipPath></defs><path fill="#a9d8d3" d="M 70.023438 51.304688 L 3.492188 51.304688 C 1.5625 51.304688 0.394531 49.179688 1.429688 47.5625 L 10.1875 33.894531 C 10.394531 33.570312 10.75 33.375 11.136719 33.375 L 62.375 33.375 C 62.761719 33.375 63.117188 33.570312 63.324219 33.894531 L 72.082031 47.5625 C 73.121094 49.179688 71.953125 51.304688 70.023438 51.304688 Z M 70.023438 51.304688 " fill-opacity="1" fill-rule="nonzero"/><path fill="#dbd2ea" d="M 72.0625 47.53125 C 71.640625 48.179688 70.914062 48.636719 70.023438 48.636719 L 3.492188 48.636719 C 2.597656 48.636719 1.875 48.179688 1.449219 47.53125 L 1.429688 47.5625 C 0.390625 49.179688 1.5625 51.304688 3.492188 51.304688 L 70.023438 51.304688 C 71.953125 51.304688 73.117188 49.179688 72.082031 47.5625 Z M 72.0625 47.53125 " fill-opacity="1" fill-rule="nonzero"/><path fill="#a9d8d3" d="M 61.425781 34.289062 L 12.109375 34.289062 C 10.335938 34.289062 8.886719 32.84375 8.886719 31.082031 L 8.886719 3.695312 C 8.886719 1.929688 10.335938 0.488281 12.109375 0.488281 C 12.109375 0.488281 61.367188 0.488281 61.425781 0.488281 C 64.078125 0.488281 64.539062 2.699219 64.488281 4.761719 C 64.417969 7.792969 64.480469 10.832031 64.480469 13.859375 C 64.480469 17.820312 64.46875 21.777344 64.464844 25.738281 C 64.460938 28.441406 65.699219 34.289062 61.425781 34.289062 Z M 61.425781 34.289062 " fill-opacity="1" fill-rule="nonzero"/><path fill="#fce9f3" d="M 57.578125 31.65625 L 15.953125 31.65625 C 14.453125 31.65625 13.230469 30.4375 13.230469 28.945312 L 13.230469 5.832031 C 13.230469 4.339844 14.453125 3.121094 15.953125 3.121094 C 15.953125 3.121094 57.53125 3.121094 57.578125 3.121094 C 59.816406 3.121094 60.207031 4.988281 60.167969 6.730469 C 60.105469 9.289062 60.160156 11.851562 60.160156 14.414062 C 60.160156 17.753906 60.152344 21.09375 60.148438 24.4375 C 60.140625 26.71875 61.1875 31.65625 57.578125 31.65625 Z M 57.578125 31.65625 " fill-opacity="1" fill-rule="nonzero"/><path fill="#000000" d="M 19.851562 34.84375 C 17.472656 34.84375 15.089844 34.828125 12.710938 34.796875 C 8.320312 34.734375 8.378906 30.46875 8.421875 27.351562 C 8.425781 27.09375 8.429688 26.839844 8.429688 26.597656 C 8.441406 24.5625 8.527344 22.492188 8.613281 20.496094 C 8.6875 18.726562 8.761719 16.898438 8.785156 15.101562 C 8.796875 14.511719 8.796875 13.878906 8.765625 13.25 C 8.765625 11.871094 8.707031 10.417969 8.648438 9.015625 C 8.59375 7.605469 8.535156 6.148438 8.535156 4.769531 C 8.535156 2.332031 10.285156 0.390625 12.691406 0.148438 C 16.214844 0.0078125 19.027344 0.0546875 21.996094 0.101562 C 23.953125 0.132812 25.972656 0.164062 28.394531 0.152344 C 28.546875 0.152344 28.667969 0.273438 28.667969 0.421875 C 28.667969 0.570312 28.546875 0.695312 28.398438 0.695312 C 25.972656 0.710938 23.945312 0.675781 21.992188 0.644531 C 19.027344 0.597656 16.226562 0.550781 12.734375 0.691406 C 10.59375 0.90625 9.085938 2.582031 9.085938 4.769531 C 9.085938 6.136719 9.140625 7.589844 9.199219 8.992188 C 9.257812 10.402344 9.3125 11.859375 9.3125 13.238281 C 9.347656 13.867188 9.34375 14.507812 9.335938 15.109375 C 9.3125 16.914062 9.238281 18.75 9.160156 20.519531 C 9.078125 22.511719 8.992188 24.574219 8.980469 26.601562 C 8.980469 26.84375 8.976562 27.097656 8.972656 27.359375 C 8.929688 30.40625 8.875 34.199219 12.722656 34.25 C 20.898438 34.367188 29.148438 34.25 37.132812 34.136719 C 45.082031 34.027344 53.300781 33.910156 61.433594 34.019531 C 61.585938 34.023438 61.707031 34.144531 61.707031 34.296875 C 61.707031 34.445312 61.578125 34.566406 61.429688 34.566406 C 53.304688 34.453125 45.089844 34.566406 37.140625 34.679688 C 31.46875 34.757812 25.664062 34.839844 19.851562 34.84375 Z M 19.851562 34.84375 " fill-opacity="1" fill-rule="nonzero"/><path fill="#000000" d="M 21.671875 24.542969 C 21.617188 24.542969 21.5625 24.527344 21.515625 24.492188 C 21.390625 24.410156 21.359375 24.238281 21.445312 24.113281 L 31.742188 9.195312 C 31.828125 9.070312 32 9.039062 32.121094 9.125 C 32.25 9.210938 32.277344 9.382812 32.195312 9.503906 L 21.894531 24.421875 C 21.84375 24.5 21.757812 24.542969 21.671875 24.542969 Z M 21.671875 24.542969 " fill-opacity="1" fill-rule="nonzero"/><path fill="#000000" d="M 34.496094 21.273438 C 34.441406 21.273438 34.386719 21.257812 34.339844 21.230469 C 34.214844 21.144531 34.1875 20.976562 34.269531 20.851562 C 36.808594 17.160156 39.183594 13.300781 41.335938 9.371094 C 41.40625 9.242188 41.570312 9.191406 41.707031 9.265625 C 41.839844 9.335938 41.886719 9.5 41.816406 9.632812 C 39.65625 13.574219 37.269531 17.453125 34.722656 21.15625 C 34.667969 21.234375 34.582031 21.273438 34.496094 21.273438 Z M 34.496094 21.273438 " fill-opacity="1" fill-rule="nonzero"/><path fill="#000000" d="M 42.886719 24.792969 C 42.847656 24.792969 42.808594 24.785156 42.769531 24.765625 C 42.632812 24.699219 42.574219 24.539062 42.636719 24.402344 C 44.789062 19.871094 47.132812 15.363281 49.609375 11 C 49.683594 10.867188 49.847656 10.824219 49.980469 10.894531 C 50.109375 10.96875 50.15625 11.136719 50.082031 11.265625 C 47.613281 15.617188 45.273438 20.113281 43.128906 24.632812 C 43.085938 24.734375 42.988281 24.792969 42.886719 24.792969 Z M 42.886719 24.792969 " fill-opacity="1" fill-rule="nonzero"/><path fill="#000000" d="M 60.660156 0.757812 C 60.660156 0.757812 60.660156 0.757812 60.65625 0.757812 C 54.917969 0.667969 50.183594 0.691406 45.167969 0.714844 C 41.492188 0.734375 37.6875 0.753906 33.164062 0.730469 C 33.011719 0.730469 32.890625 0.605469 32.890625 0.457031 C 32.890625 0.308594 33.011719 0.183594 33.164062 0.183594 C 37.6875 0.207031 41.488281 0.191406 45.164062 0.171875 C 50.179688 0.148438 54.917969 0.121094 60.660156 0.214844 C 60.8125 0.21875 60.933594 0.339844 60.929688 0.492188 C 60.933594 0.640625 60.808594 0.757812 60.660156 0.757812 Z M 60.660156 0.757812 " fill-opacity="1" fill-rule="nonzero"/><path fill="#000000" d="M 29.09375 32.265625 C 24.617188 32.265625 20.117188 32.140625 15.660156 31.699219 C 14.894531 31.625 14.097656 31.503906 13.542969 30.960938 C 12.820312 30.257812 12.824219 29.195312 12.886719 28.167969 C 13.34375 20.839844 13.070312 13.375 12.800781 6.152344 C 12.753906 4.914062 13.402344 3.960938 14.675781 3.402344 C 15.839844 2.886719 17.152344 2.898438 18.3125 2.90625 L 24.546875 2.949219 C 24.695312 2.949219 24.820312 3.078125 24.816406 3.226562 C 24.8125 3.375 24.691406 3.496094 24.539062 3.496094 L 18.308594 3.453125 C 17.207031 3.445312 15.953125 3.433594 14.898438 3.898438 C 13.832031 4.367188 13.3125 5.121094 13.347656 6.132812 C 13.613281 13.367188 13.890625 20.84375 13.433594 28.199219 C 13.375 29.101562 13.367188 30.027344 13.925781 30.570312 C 14.351562 30.992188 15.015625 31.089844 15.714844 31.15625 C 23.164062 31.890625 30.777344 31.746094 38.136719 31.605469 L 42.667969 31.519531 C 43.125 31.511719 44.257812 31.527344 45.691406 31.554688 C 49.671875 31.625 56.339844 31.738281 58.039062 31.410156 C 58.1875 31.378906 58.332031 31.476562 58.359375 31.625 C 58.386719 31.769531 58.289062 31.914062 58.140625 31.941406 C 56.386719 32.28125 49.683594 32.164062 45.679688 32.097656 C 44.253906 32.074219 43.125 32.050781 42.675781 32.0625 L 38.144531 32.148438 C 35.160156 32.207031 32.136719 32.265625 29.09375 32.265625 Z M 29.09375 32.265625 " fill-opacity="1" fill-rule="nonzero"/><g clip-path="url(#id1)"><path fill="#000000" d="M 16.796875 52.007812 C 11.328125 52.007812 6.34375 51.992188 4.183594 51.949219 C 2.179688 51.902344 0.980469 50.925781 0.890625 49.261719 C 0.828125 48.078125 1.554688 47.058594 2.199219 46.164062 C 2.378906 45.914062 2.546875 45.679688 2.699219 45.445312 L 10.085938 33.902344 C 10.167969 33.777344 10.339844 33.742188 10.464844 33.820312 C 10.59375 33.902344 10.628906 34.070312 10.550781 34.195312 L 3.15625 45.734375 C 3 45.980469 2.828125 46.222656 2.640625 46.476562 C 2.019531 47.34375 1.378906 48.234375 1.433594 49.230469 C 1.53125 51.070312 3.203125 51.378906 4.191406 51.402344 C 9.523438 51.515625 32.105469 51.4375 36.578125 51.421875 C 42.519531 51.398438 49.011719 51.355469 56.421875 51.296875 C 58.34375 51.28125 60.265625 51.265625 62.1875 51.25 C 64.316406 51.230469 66.441406 51.210938 68.570312 51.195312 C 68.675781 51.195312 68.78125 51.1875 68.890625 51.1875 C 69.125 51.179688 69.371094 51.167969 69.617188 51.191406 C 69.765625 51.203125 69.878906 51.339844 69.863281 51.488281 C 69.847656 51.636719 69.71875 51.75 69.5625 51.734375 C 69.355469 51.714844 69.125 51.722656 68.910156 51.730469 C 68.796875 51.734375 68.679688 51.738281 68.570312 51.738281 C 66.445312 51.753906 64.316406 51.773438 62.1875 51.792969 C 60.269531 51.808594 58.347656 51.828125 56.425781 51.839844 C 49.011719 51.902344 42.519531 51.9375 36.578125 51.964844 C 33.917969 51.976562 24.835938 52.007812 16.796875 52.007812 Z M 16.796875 52.007812 " fill-opacity="1" fill-rule="nonzero"/></g><path fill="#000000" d="M 60.867188 48.988281 L 3.898438 48.988281 C 3.746094 48.988281 3.625 48.867188 3.625 48.714844 C 3.625 48.566406 3.746094 48.445312 3.898438 48.445312 L 60.867188 48.445312 C 61.019531 48.445312 61.140625 48.566406 61.140625 48.714844 C 61.140625 48.867188 61.019531 48.988281 60.867188 48.988281 Z M 60.867188 48.988281 " fill-opacity="1" fill-rule="nonzero"/><path fill="#dbd2ea" d="M 66.554688 46.203125 L 7.925781 46.203125 L 14.617188 35.925781 L 59.859375 35.925781 Z M 66.554688 46.203125 " fill-opacity="1" fill-rule="nonzero"/><path fill="#000000" d="M 9.480469 44.203125 C 9.34375 44.203125 9.226562 44.101562 9.210938 43.964844 C 9.191406 43.816406 9.296875 43.679688 9.449219 43.660156 C 9.574219 43.644531 9.699219 43.628906 9.828125 43.617188 C 9.957031 43.601562 10.085938 43.585938 10.214844 43.574219 C 10.222656 43.570312 10.234375 43.570312 10.246094 43.570312 L 65.152344 43.570312 C 65.300781 43.570312 65.425781 43.691406 65.425781 43.84375 C 65.425781 43.992188 65.300781 44.113281 65.152344 44.113281 L 10.261719 44.113281 C 10.140625 44.128906 10.011719 44.144531 9.890625 44.15625 C 9.765625 44.171875 9.640625 44.183594 9.515625 44.203125 C 9.503906 44.203125 9.492188 44.203125 9.480469 44.203125 Z M 9.480469 44.203125 " fill-opacity="1" fill-rule="nonzero"/><path fill="#000000" d="M 10.882812 41.710938 C 10.746094 41.710938 10.628906 41.609375 10.613281 41.46875 C 10.59375 41.320312 10.699219 41.183594 10.851562 41.164062 C 10.976562 41.148438 11.105469 41.136719 11.234375 41.121094 C 11.359375 41.109375 11.488281 41.09375 11.613281 41.078125 C 11.625 41.078125 11.636719 41.074219 11.648438 41.074219 L 63.453125 41.074219 C 63.601562 41.074219 63.722656 41.199219 63.722656 41.347656 C 63.722656 41.496094 63.601562 41.621094 63.453125 41.621094 L 11.664062 41.621094 C 11.542969 41.632812 11.417969 41.648438 11.296875 41.664062 C 11.171875 41.675781 11.046875 41.695312 10.917969 41.707031 C 10.90625 41.710938 10.894531 41.710938 10.882812 41.710938 Z M 10.882812 41.710938 " fill-opacity="1" fill-rule="nonzero"/><path fill="#000000" d="M 12.0625 39.105469 C 11.925781 39.105469 11.808594 39.003906 11.792969 38.863281 C 11.773438 38.714844 11.878906 38.578125 12.03125 38.558594 C 12.160156 38.542969 12.289062 38.53125 12.414062 38.515625 C 12.542969 38.503906 12.667969 38.488281 12.796875 38.472656 C 12.804688 38.472656 12.816406 38.46875 12.828125 38.46875 L 61.753906 38.46875 C 61.90625 38.46875 62.027344 38.59375 62.027344 38.742188 C 62.027344 38.890625 61.90625 39.015625 61.753906 39.015625 L 12.84375 39.015625 C 12.722656 39.027344 12.597656 39.042969 12.476562 39.058594 C 12.351562 39.070312 12.222656 39.085938 12.097656 39.101562 C 12.085938 39.105469 12.074219 39.105469 12.0625 39.105469 Z M 12.0625 39.105469 " fill-opacity="1" fill-rule="nonzero"/><path fill="#000000" d="M 12.0625 46.476562 C 12.015625 46.476562 11.96875 46.464844 11.925781 46.4375 C 11.796875 46.359375 11.75 46.195312 11.828125 46.0625 L 17.808594 35.863281 C 17.886719 35.734375 18.054688 35.691406 18.183594 35.765625 C 18.316406 35.84375 18.359375 36.007812 18.28125 36.140625 L 12.300781 46.339844 C 12.25 46.425781 12.15625 46.476562 12.0625 46.476562 Z M 12.0625 46.476562 " fill-opacity="1" fill-rule="nonzero"/><path fill="#000000" d="M 18.351562 46.476562 C 18.3125 46.476562 18.273438 46.46875 18.238281 46.449219 C 18.101562 46.386719 18.039062 46.226562 18.101562 46.089844 L 22.734375 35.816406 C 22.796875 35.679688 22.957031 35.617188 23.09375 35.679688 C 23.230469 35.742188 23.292969 35.902344 23.230469 36.039062 L 18.597656 46.316406 C 18.554688 46.414062 18.453125 46.476562 18.351562 46.476562 Z M 18.351562 46.476562 " fill-opacity="1" fill-rule="nonzero"/><path fill="#000000" d="M 26.171875 44.203125 C 26.152344 44.203125 26.128906 44.203125 26.109375 44.199219 C 25.964844 44.164062 25.871094 44.019531 25.902344 43.875 L 27.710938 35.855469 C 27.742188 35.710938 27.890625 35.617188 28.035156 35.648438 C 28.183594 35.683594 28.273438 35.828125 28.242188 35.972656 L 26.4375 43.992188 C 26.410156 44.121094 26.296875 44.203125 26.171875 44.203125 Z M 26.171875 44.203125 " fill-opacity="1" fill-rule="nonzero"/><path fill="#000000" d="M 54.226562 46.484375 C 54.132812 46.484375 54.039062 46.433594 53.992188 46.347656 L 48.007812 36.148438 C 47.933594 36.015625 47.976562 35.851562 48.109375 35.773438 C 48.238281 35.699219 48.40625 35.742188 48.484375 35.871094 L 54.464844 46.074219 C 54.539062 46.203125 54.496094 46.367188 54.367188 46.445312 C 54.320312 46.46875 54.273438 46.484375 54.226562 46.484375 Z M 54.226562 46.484375 " fill-opacity="1" fill-rule="nonzero"/><path fill="#000000" d="M 58.898438 44.203125 C 58.804688 44.203125 58.714844 44.15625 58.664062 44.066406 L 53.992188 36.101562 C 53.914062 35.972656 53.957031 35.804688 54.089844 35.730469 C 54.222656 35.652344 54.386719 35.695312 54.464844 35.828125 L 59.136719 43.792969 C 59.214844 43.925781 59.167969 44.089844 59.039062 44.164062 C 58.992188 44.191406 58.945312 44.203125 58.898438 44.203125 Z M 58.898438 44.203125 " fill-opacity="1" fill-rule="nonzero"/><path fill="#000000" d="M 47.9375 46.484375 C 47.835938 46.484375 47.734375 46.421875 47.691406 46.324219 L 43.058594 36.046875 C 42.996094 35.910156 43.058594 35.746094 43.195312 35.6875 C 43.332031 35.625 43.496094 35.6875 43.554688 35.824219 L 48.1875 46.101562 C 48.25 46.234375 48.1875 46.398438 48.050781 46.457031 C 48.015625 46.476562 47.976562 46.484375 47.9375 46.484375 Z M 47.9375 46.484375 " fill-opacity="1" fill-rule="nonzero"/><path fill="#000000" d="M 40.117188 44.210938 C 39.992188 44.210938 39.878906 44.125 39.851562 44 L 38.046875 35.980469 C 38.015625 35.835938 38.105469 35.691406 38.253906 35.65625 C 38.398438 35.625 38.546875 35.71875 38.578125 35.863281 L 40.386719 43.882812 C 40.417969 44.03125 40.324219 44.175781 40.179688 44.207031 C 40.160156 44.210938 40.136719 44.210938 40.117188 44.210938 Z M 40.117188 44.210938 " fill-opacity="1" fill-rule="nonzero"/><path fill="#000000" d="M 33.167969 44.203125 C 33.164062 44.203125 33.164062 44.203125 33.160156 44.203125 C 33.011719 44.203125 32.890625 44.078125 32.890625 43.929688 L 33.011719 35.910156 C 33.011719 35.761719 33.132812 35.640625 33.285156 35.640625 C 33.285156 35.640625 33.285156 35.640625 33.289062 35.640625 C 33.441406 35.644531 33.558594 35.765625 33.558594 35.917969 L 33.441406 43.933594 C 33.4375 44.085938 33.316406 44.203125 33.167969 44.203125 Z M 33.167969 44.203125 " fill-opacity="1" fill-rule="nonzero"/><path fill="#000000" d="M 64.628906 19.402344 C 64.480469 19.402344 64.355469 19.28125 64.355469 19.132812 L 64.355469 7.1875 C 64.355469 7.035156 64.480469 6.914062 64.628906 6.914062 C 64.78125 6.914062 64.902344 7.035156 64.902344 7.1875 L 64.902344 19.132812 C 64.902344 19.28125 64.78125 19.402344 64.628906 19.402344 Z M 64.628906 19.402344 " fill-opacity="1" fill-rule="nonzero"/><path fill="#000000" d="M 64.628906 26.703125 C 64.480469 26.703125 64.355469 26.582031 64.355469 26.433594 L 64.355469 22.90625 C 64.355469 22.753906 64.480469 22.632812 64.628906 22.632812 C 64.78125 22.632812 64.902344 22.753906 64.902344 22.90625 L 64.902344 26.433594 C 64.902344 26.582031 64.78125 26.703125 64.628906 26.703125 Z M 64.628906 26.703125 " fill-opacity="1" fill-rule="nonzero"/></svg>